<svg xmlns="http://www.w3.org/2000/svg" width="24" height="24" fill="none" viewBox="0 0 24 24"><path fill="currentColor" fill-rule="evenodd" d="M15.994 6.082a.5.5 0 1 0-.987-.164L14.493 9h-3.986l.486-2.918a.5.5 0 1 0-.986-.164L9.493 9H7a.5.5 0 1 0 0 1h2.326l-.666 4H6a.5.5 0 0 0 0 1h2.493l-.486 2.918a.5.5 0 1 0 .986.164L9.507 15h1.52a4.47 4.47 0 0 1 .23-1H9.672l.667-4h3.987l-.203 1.214a4.484 4.484 0 0 1 1.048-.202L15.34 10H18a.5.5 0 1 0 0-1h-2.493l.487-2.918ZM15.5 18a2.5 2.5 0 1 0 0-5 2.5 2.5 0 0 0 0 5Zm0 1c.79 0 1.519-.261 2.104-.703.019.028.04.055.065.079l1.414 1.414a.5.5 0 0 0 .707-.707l-1.414-1.414a.511.511 0 0 0-.079-.064A3.5 3.5 0 1 0 15.5 19Z" clip-rule="evenodd"></path></svg>